<?xml version="1.0" encoding="UTF-8"?>
<svg version="1.1" xmlns="http://www.w3.org/2000/svg" width="50" height="50">
<path d="M0 0 C5.95735496 -0.49644625 10.05600549 0.57029184 15 4 C19.54844378 8.23718162 22.58872138 12.53282559 23.3359375 18.83203125 C23.43647875 26.50332885 22.72755058 32.0427899 17.3515625 37.75 C11.33355109 43.21614137 6.06942078 44.47683148 -1.99609375 44.30859375 C-9.05849295 43.58306769 -13.33643188 40.22066441 -17.7734375 34.87890625 C-21.6641338 28.91895427 -21.71020395 22.91325113 -21 16 C-19.297937 9.87461159 -15.37966962 5.32035523 -10 2 C-6.5625 1.125 -6.5625 1.125 -4 1 C-4 2.32 -4 3.64 -4 5 C-5.609375 6.23828125 -5.609375 6.23828125 -7.75 7.3125 C-12.06075025 9.83474749 -14.49453204 12.17502193 -16 17 C-16.96234525 22.60909802 -16.5240544 26.75722012 -13.5 31.625 C-12.68838616 32.76576834 -11.86251458 33.89721351 -11 35 C-10.93124874 33.54577619 -10.93124874 33.54577619 -12.5 30.6875 C-14 27 -14 27 -14 23 C-12.35 23 -10.7 23 -9 23 C-9 22.34 -9 21.68 -9 21 C-10.65 21 -12.3 21 -14 21 C-12.39112383 14.7107568 -9.32988263 11.55325509 -4 8 C-2.68 8 -1.36 8 0 8 C0 9.32 0 10.64 0 12 C0.66 12 1.32 12 2 12 C1.33735914 5.93735778 1.33735914 5.93735778 0 0 Z M-5 16 C-3.83857315 20.35535069 -2.92300495 22.64619703 1 25 C1.99 24.01 2.98 23.02 4 22 C0.22406041 17.71929002 0.22406041 17.71929002 -5 16 Z " fill="#000000" transform="translate(24,3)"/>
</svg>
